<svg xmlns="http://www.w3.org/2000/svg" width="400" height="400" viewBox="0 0 400 400">
  <defs>
    <pattern id="webPattern" x="0" y="0" width="400" height="400" patternUnits="userSpaceOnUse">
      <!-- Radial lines from center -->
      <g stroke="currentColor" stroke-width="0.5" fill="none" opacity="0.15">
        <!-- Main radial spokes -->
        <line x1="200" y1="200" x2="200" y2="0"/>
        <line x1="200" y1="200" x2="400" y2="0"/>
        <line x1="200" y1="200" x2="400" y2="200"/>
        <line x1="200" y1="200" x2="400" y2="400"/>
        <line x1="200" y1="200" x2="200" y2="400"/>
        <line x1="200" y1="200" x2="0" y2="400"/>
        <line x1="200" y1="200" x2="0" y2="200"/>
        <line x1="200" y1="200" x2="0" y2="0"/>

        <!-- Diagonal spokes -->
        <line x1="200" y1="200" x2="300" y2="0"/>
        <line x1="200" y1="200" x2="400" y2="100"/>
        <line x1="200" y1="200" x2="400" y2="300"/>
        <line x1="200" y1="200" x2="300" y2="400"/>
        <line x1="200" y1="200" x2="100" y2="400"/>
        <line x1="200" y1="200" x2="0" y2="300"/>
        <line x1="200" y1="200" x2="0" y2="100"/>
        <line x1="200" y1="200" x2="100" y2="0"/>

        <!-- Concentric spiral rings -->
        <circle cx="200" cy="200" r="40"/>
        <circle cx="200" cy="200" r="80"/>
        <circle cx="200" cy="200" r="120"/>
        <circle cx="200" cy="200" r="160"/>
        <circle cx="200" cy="200" r="200"/>
        <circle cx="200" cy="200" r="260"/>
      </g>
    </pattern>
  </defs>
  <rect width="400" height="400" fill="url(#webPattern)"/>
</svg>
