<svg width="93" height="97" viewBox="0 0 93 97" fill="none" xmlns="http://www.w3.org/2000/svg">
<path d="M52.1085 39.9675C52.1085 43.9108 49.3814 47.1075 46.0174 47.1075C42.6533 47.1075 39.9262 43.9108 39.9262 39.9675C39.9262 36.0241 42.6533 32.8274 46.0174 32.8274C49.3814 32.8274 52.1085 36.0241 52.1085 39.9675Z" fill="white"/>
<path d="M55.5436 53.9164C55.5436 60.5631 51.2785 65.9514 46.0174 65.9514C40.7562 65.9514 36.4911 60.5631 36.4911 53.9164C36.4911 47.2696 40.7562 41.8813 46.0174 41.8813C51.2785 41.8813 55.5436 47.2696 55.5436 53.9164Z" fill="white"/>
<path d="M39.4186 29.331C38.3345 32.7427 38.1485 34.6691 40.0765 38.1774M52.6369 29.331C53.721 32.7427 53.9071 34.6691 51.979 38.1774M28.0404 52.8736C33.0395 50.3972 36.1065 49.4873 42.3302 49.2161M59.6099 63.7063C56.6786 56.5715 54.8295 53.3266 50.5874 52.9796M32.4481 63.7063C35.3794 56.5715 37.2285 53.3266 41.4706 52.9796M61.2867 37.7592C58.138 43.621 55.5863 46.1914 49.1824 49.0845M30.7587 37.7592C33.9074 43.621 36.4592 46.1914 42.8631 49.0845M63.9986 52.8736C58.9994 50.3972 55.9324 49.4873 49.7087 49.2161M22.2804 14.7482C31.8114 13.677 36.9622 11.688 45.8434 5.93986M29.5731 24.0333C36.0394 22.9942 39.452 21.7088 45.081 17.8836M24.6367 81.0163C20.326 72.4486 16.6739 68.3075 8.20199 61.9716M30.8158 70.9557C27.5982 65.2512 25.2089 62.4964 19.6686 58.5437M8.03468 61.9193C10.0155 52.535 9.74746 47.0201 7.08434 36.7817M19.477 57.2597C20.7193 50.8294 20.6827 47.1829 19.0207 40.5832M24.8732 82.035C33.1732 82.2388 37.8178 83.4676 46.0877 87.4255M31.0319 72.9507C37.0955 72.9014 40.322 73.7131 45.7052 76.99M7.08438 36.5263C13.9712 29.8511 16.8308 25.1278 20.3437 15.149M18.3659 38.7034C23.1752 33.7635 25.2882 30.5476 27.7898 23.8343M46.1952 26.3395L46.1952 1.22656M46.1952 95.26L46.1952 70.1471M33.4689 30.2315L17.5963 10.7708M26.5163 41.6038L1.96521 36.3213M24.6863 55.7061L1.22717 64.6687M35.3268 66.8762L20.8294 87.3819M70.1917 14.4986C60.6607 13.4274 55.5099 11.4384 46.6287 5.69024M62.899 23.7837C56.4327 22.7446 53.0201 21.4592 47.391 17.634M67.8353 80.7666C72.146 72.199 75.7982 68.0579 84.2701 61.722M61.6563 70.706C64.8739 65.0016 67.2632 62.2468 72.8034 58.2941M84.4374 61.6696C82.4565 52.2854 82.7246 46.7704 85.3877 36.5321M72.995 57.0101C71.7528 50.5797 71.7894 46.9333 73.4514 40.3336M67.5989 81.7853C59.2989 81.9892 54.6543 83.218 46.3844 87.1759M61.4402 72.7011C55.3766 72.6518 52.1501 73.4634 46.7669 76.7404M85.3877 36.2767C78.5009 29.6014 75.6413 24.8781 72.1283 14.8994M74.1062 38.4538C69.2968 33.5139 67.1839 30.298 64.6823 23.5847M59.0031 29.9819L74.8757 10.5212M65.9558 41.3542L90.5068 36.0717M67.7857 55.4565L91.2449 64.4191M57.1453 66.6266L71.6427 87.1323M52.1085 39.9675C52.1085 43.9108 49.3814 47.1075 46.0174 47.1075C42.6533 47.1075 39.9262 43.9108 39.9262 39.9675C39.9262 36.0241 42.6533 32.8274 46.0174 32.8274C49.3814 32.8274 52.1085 36.0241 52.1085 39.9675ZM55.5436 53.9164C55.5436 60.5631 51.2785 65.9514 46.0174 65.9514C40.7562 65.9514 36.4911 60.5631 36.4911 53.9164C36.4911 47.2696 40.7562 41.8813 46.0174 41.8813C51.2785 41.8813 55.5436 47.2696 55.5436 53.9164Z" stroke="white" stroke-width="2.45363" stroke-linecap="round"/>
</svg>
