<svg width="465" height="113" viewBox="0 0 465 113" fill="none" xmlns="http://www.w3.org/2000/svg">
<path d="M52.1085 48.3102C52.1085 52.2536 49.3814 55.4503 46.0174 55.4503C42.6533 55.4503 39.9262 52.2536 39.9262 48.3102C39.9262 44.3669 42.6533 41.1702 46.0174 41.1702C49.3814 41.1702 52.1085 44.3669 52.1085 48.3102Z" fill="white"/>
<path d="M55.5436 62.2591C55.5436 68.9059 51.2785 74.2942 46.0174 74.2942C40.7562 74.2942 36.4911 68.9059 36.4911 62.2591C36.4911 55.6123 40.7562 50.2241 46.0174 50.2241C51.2785 50.2241 55.5436 55.6123 55.5436 62.2591Z" fill="white"/>
<path d="M39.4186 37.6737C38.3345 41.0855 38.1485 43.0119 40.0765 46.5202M52.6369 37.6737C53.721 41.0855 53.9071 43.0119 51.979 46.5202M28.0404 61.2163C33.0395 58.74 36.1065 57.8301 42.3302 57.5588M59.6099 72.0491C56.6786 64.9143 54.8295 61.6694 50.5874 61.3223M32.4481 72.0491C35.3794 64.9143 37.2285 61.6694 41.4706 61.3223M61.2867 46.102C58.138 51.9638 55.5863 54.5341 49.1824 57.4273M30.7587 46.102C33.9074 51.9638 36.4592 54.5341 42.8631 57.4273M63.9986 61.2163C58.9994 58.74 55.9324 57.8301 49.7087 57.5588M22.2804 23.091C31.8114 22.0198 36.9622 20.0308 45.8434 14.2826M29.5731 32.3761C36.0394 31.337 39.452 30.0516 45.081 26.2264M24.6367 89.359C20.326 80.7913 16.6739 76.6503 8.20199 70.3144M30.8158 79.2984C27.5982 73.594 25.2089 70.8391 19.6686 66.8864M8.03468 70.262C10.0155 60.8778 9.74746 55.3628 7.08434 45.1245M19.477 65.6025C20.7193 59.1721 20.6827 55.5257 19.0207 48.9259M24.8732 90.3777C33.1732 90.5816 37.8178 91.8103 46.0877 95.7683M31.0319 81.2935C37.0955 81.2442 40.322 82.0558 45.7052 85.3327M7.08438 44.8691C13.9712 38.1938 16.8308 33.4705 20.3437 23.4918M18.3659 47.0462C23.1752 42.1063 25.2882 38.8903 27.7898 32.1771M46.1952 34.6822L46.1952 9.56934M46.1952 103.603L46.1952 78.4899M33.4689 38.5743L17.5963 19.1136M26.5163 49.9465L1.96521 44.6641M24.6863 64.0489L1.22717 73.0114M35.3268 75.219L20.8294 95.7247M70.1917 22.8414C60.6607 21.7702 55.5099 19.7812 46.6287 14.033M62.899 32.1265C56.4327 31.0874 53.0201 29.802 47.391 25.9768M67.8353 89.1094C72.146 80.5417 75.7982 76.4007 84.2701 70.0647M61.6563 79.0488C64.8739 73.3444 67.2632 70.5895 72.8034 66.6368M84.4374 70.0124C82.4565 60.6282 82.7246 55.1132 85.3877 44.8748M72.995 65.3529C71.7528 58.9225 71.7894 55.276 73.4514 48.6763M67.5989 90.1281C59.2989 90.332 54.6543 91.5607 46.3844 95.5187M61.4402 81.0439C55.3766 80.9945 52.1501 81.8062 46.7669 85.0831M85.3877 44.6195C78.5009 37.9442 75.6413 33.2209 72.1283 23.2421M74.1062 46.7965C69.2968 41.8566 67.1839 38.6407 64.6823 31.9275M59.0031 38.3247L74.8757 18.864M65.9558 49.6969L90.5068 44.4145M67.7857 63.7993L91.2449 72.7618M57.1453 74.9694L71.6427 95.4751M52.1085 48.3102C52.1085 52.2536 49.3814 55.4503 46.0174 55.4503C42.6533 55.4503 39.9262 52.2536 39.9262 48.3102C39.9262 44.3669 42.6533 41.1702 46.0174 41.1702C49.3814 41.1702 52.1085 44.3669 52.1085 48.3102ZM55.5436 62.2591C55.5436 68.9059 51.2785 74.2942 46.0174 74.2942C40.7562 74.2942 36.4911 68.9059 36.4911 62.2591C36.4911 55.6123 40.7562 50.2241 46.0174 50.2241C51.2785 50.2241 55.5436 55.6123 55.5436 62.2591Z" stroke="white" stroke-width="2.45363" stroke-linecap="round"/>
<path d="M148.108 86.9201C142.035 86.9201 136.913 86.0613 132.742 84.3438C128.632 82.6263 125.534 80.2033 123.449 77.0749C121.363 73.8852 120.32 70.1434 120.32 65.8496V65.2975H130.257V66.7697C130.257 69.2233 130.809 71.2782 131.914 72.9344C133.018 74.5293 134.858 75.7561 137.434 76.6149C140.011 77.4123 143.568 77.811 148.108 77.811C152.033 77.811 155.162 77.535 157.493 76.9829C159.824 76.3695 161.48 75.4494 162.461 74.2226C163.504 72.9344 164.025 71.3396 164.025 69.438C164.025 66.739 163.167 64.7761 161.449 63.5493C159.732 62.3225 156.941 61.341 153.076 60.6049L137.986 58.1206C134.551 57.4459 131.484 56.4644 128.785 55.1763C126.086 53.8268 123.97 52.0479 122.436 49.8396C120.964 47.57 120.228 44.7483 120.228 41.3746C120.228 39.1663 120.719 36.9887 121.7 34.8418C122.682 32.6949 124.215 30.7626 126.301 29.0451C128.386 27.3276 131.085 25.9781 134.398 24.9966C137.772 23.9538 141.881 23.4324 146.727 23.4324C152.739 23.4324 157.677 24.3525 161.541 26.1927C165.406 28.033 168.258 30.5479 170.098 33.7377C172 36.866 172.951 40.4545 172.951 44.503V45.055H163.105V43.8589C163.105 41.3439 162.553 39.2583 161.449 37.6021C160.345 35.8846 158.535 34.6271 156.021 33.8297C153.506 32.9709 150.101 32.5415 145.807 32.5415C142.065 32.5415 139.029 32.8482 136.698 33.4616C134.429 34.075 132.772 34.9951 131.73 36.222C130.687 37.3874 130.165 38.921 130.165 40.8225C130.165 42.5401 130.533 43.9509 131.27 45.055C132.006 46.1592 133.14 47.0486 134.674 47.7234C136.207 48.3368 138.17 48.9195 140.563 49.4716L155.56 52.0479C159.67 52.784 163.075 53.8881 165.774 55.3603C168.534 56.8325 170.589 58.7034 171.938 60.973C173.288 63.2426 173.963 65.8802 173.963 68.8859C173.963 72.0143 173.073 74.9587 171.294 77.719C169.515 80.4793 166.724 82.7183 162.921 84.4358C159.118 86.092 154.18 86.9201 148.108 86.9201ZM215.798 67.4137H189.39V58.4887H214.877C219.539 58.4887 223.036 57.5379 225.367 55.6363C227.759 53.7348 228.955 50.4837 228.955 45.8831C228.955 41.3439 227.759 38.1235 225.367 36.222C223.036 34.2591 219.539 33.2776 214.877 33.2776H189.39V24.3525H215.798C220.398 24.3525 224.416 25.2113 227.851 26.9288C231.347 28.585 234.046 31.008 235.948 34.1977C237.911 37.3874 238.892 41.2826 238.892 45.8831C238.892 50.4224 237.911 54.2868 235.948 57.4765C234.046 60.6663 231.347 63.1199 227.851 64.8374C224.416 66.555 220.398 67.4137 215.798 67.4137ZM195.555 86H185.618V24.3525H195.555V86ZM259.37 86H249.433V24.3525H259.37V86ZM301.788 86H276.945V77.0749H301.788C306.572 77.0749 310.467 76.3695 313.473 74.9587C316.54 73.4865 318.81 71.1555 320.282 67.9658C321.754 64.7148 322.49 60.4516 322.49 55.1763C322.49 49.8396 321.754 45.5764 320.282 42.3867C318.81 39.197 316.54 36.8967 313.473 35.4859C310.467 34.0137 306.572 33.2776 301.788 33.2776H276.945V24.3525H301.788C308.229 24.3525 313.749 25.61 318.35 28.125C323.012 30.5786 326.6 34.1057 329.115 38.7063C331.691 43.3068 332.98 48.7968 332.98 55.1763C332.98 61.5557 331.691 67.0457 329.115 71.6463C326.6 76.2468 323.012 79.8046 318.35 82.3196C313.749 84.7732 308.229 86 301.788 86ZM283.57 86H273.724V24.3525H283.57V86ZM354.921 86H344.984V24.3525H354.921V86ZM394.302 86H348.02V77.0749H394.302V86ZM392.922 59.4088H348.02V50.5757H392.922V59.4088ZM394.302 33.2776H348.02V24.3525H394.302V33.2776ZM416.58 86H406.642V24.3525H438.662C443.324 24.3525 447.342 25.0579 450.716 26.4688C454.151 27.8796 456.758 29.9345 458.537 32.6335C460.377 35.3325 461.297 38.6143 461.297 42.4787C461.297 45.9138 460.561 48.8582 459.089 51.3118C457.678 53.7654 455.592 55.6977 452.832 57.1085C450.133 58.5193 446.851 59.3474 442.987 59.5928V60.2369C445.379 60.8503 447.219 61.8624 448.507 63.2732C449.857 64.6227 451.084 66.2789 452.188 68.2418L462.493 86H451.084L441.239 68.9779C440.318 67.3217 439.306 66.0029 438.202 65.0215C437.159 63.9787 435.841 63.2426 434.246 62.8132C432.651 62.3225 430.535 62.0771 427.897 62.0771H416.58V86ZM416.58 33.2776V54.4402H438.57C442.68 54.4402 445.778 53.6427 447.863 52.0479C449.949 50.453 450.992 47.7234 450.992 43.8589C450.992 40.1171 449.949 37.4181 447.863 35.7619C445.778 34.1057 442.68 33.2776 438.57 33.2776H416.58Z" fill="white"/>
</svg>
